<svg width="1024" height="1024" viewBox="0 0 1024 1024" xmlns="http://www.w3.org/2000/svg">
    <rect x="0" y="0" width="1024" height="1024" rx="180" fill="#7ed0ec"/>
    
    <g transform="translate(512, 512) scale(15) translate(-12, -12)">
        <path fill="#ffffff" d="M6.75 2.5A4.25 4.25 0 0 1 11 6.75V11H6.75a4.25 4.25 0 1 1 0-8.5zM9 9V6.75A2.25 2.25 0 1 0 6.75 9H9zm-2.25 4H11v4.25A4.25 4.25 0 1 1 6.75 13zm0 2A2.25 2.25 0 1 0 9 17.25V15H6.75zm10.5-12.5a4.25 4.25 0 1 1 0 8.5H13V6.75a4.25 4.25 0 0 1 4.25-4.25zm0 6.5A2.25 2.25 0 1 0 15 6.75V9h2.25zM13 13h4.25A4.25 4.25 0 1 1 13 17.25V13zm2 2v2.25A2.25 2.25 0 1 0 17.25 15H15z"/>
    </g>
</svg>